HIERARCHY
ROOT Hips
{
  OFFSET 0.374978 85.9014 -8.46859
  CHANNELS 6 Xposition Yposition Zposition Zrotation Xrotation Yrotation
  JOINT Spine
  {
    OFFSET 0 9.91813 -2.23682
    CHANNELS 6 Xposition Yposition Zposition Zrotation Xrotation Yrotation
    JOINT Spine1
    {
      OFFSET 0 9.57301 0
      CHANNELS 6 Xposition Yposition Zposition Zrotation Xrotation Yrotation
      JOINT Spine2
      {
        OFFSET 0 9.57301 0
        CHANNELS 6 Xposition Yposition Zposition Zrotation Xrotation Yrotation
        JOINT Spine3
        {
          OFFSET 0 9.57301 0
          CHANNELS 6 Xposition Yposition Zposition Zrotation Xrotation Yrotation
          JOINT Neck
          {
            OFFSET 0 12.3082 1.23082
            CHANNELS 6 Xposition Yposition Zposition Zrotation Xrotation Yrotation
            JOINT Neck1
            {
              OFFSET 0 3.93031 0
              CHANNELS 6 Xposition Yposition Zposition Zrotation Xrotation Yrotation
              JOINT Head
              {
                OFFSET 0 3.93031 0
                CHANNELS 6 Xposition Yposition Zposition Zrotation Xrotation Yrotation
                End Site
                {
                  OFFSET 0 9.72808 0
                }
              }
            }
          }
          JOINT RightShoulder
          {
            OFFSET 0 8.79154 5.27092
            CHANNELS 6 Xposition Yposition Zposition Zrotation Xrotation Yrotation
            JOINT RightArm
            {
              OFFSET 0 16.5743 0
              CHANNELS 6 Xposition Yposition Zposition Zrotation Xrotation Yrotation
              JOINT RightForeArm
              {
                OFFSET 0 27.4101 0
                CHANNELS 6 Xposition Yposition Zposition Zrotation Xrotation Yrotation
                JOINT RightHand
                {
                  OFFSET 0 20.5961 0
                  CHANNELS 6 Xposition Yposition Zposition Zrotation Xrotation Yrotation
                  JOINT RightHandThumb1
                  {
                    OFFSET -2.72421 3.18823 2.37073
                    CHANNELS 6 Xposition Yposition Zposition Zrotation Xrotation Yrotation
                    End Site
                    {
                      OFFSET 0 0 0
                    }
                  }
                  JOINT RightHandMiddle1
                  {
                    OFFSET 0 8.50195 -0.0544997
                    CHANNELS 6 Xposition Yposition Zposition Zrotation Xrotation Yrotation
                    End Site
                    {
                      OFFSET 0 0 0
                    }
                  }
                }
              }
            }
          }
          JOINT LeftShoulder
          {
            OFFSET 0 8.79154 5.27092
            CHANNELS 6 Xposition Yposition Zposition Zrotation Xrotation Yrotation
            JOINT LeftArm
            {
              OFFSET 0 16.5743 0
              CHANNELS 6 Xposition Yposition Zposition Zrotation Xrotation Yrotation
              JOINT LeftForeArm
              {
                OFFSET 0 27.4101 0
                CHANNELS 6 Xposition Yposition Zposition Zrotation Xrotation Yrotation
                JOINT LeftHand
                {
                  OFFSET 0 20.5961 0
                  CHANNELS 6 Xposition Yposition Zposition Zrotation Xrotation Yrotation
                  JOINT LeftHandThumb1
                  {
                    OFFSET 2.72421 3.18823 2.37073
                    CHANNELS 6 Xposition Yposition Zposition Zrotation Xrotation Yrotation
                    End Site
                    {
                      OFFSET 0 0 0
                    }
                  }
                  JOINT LeftHandMiddle1
                  {
                    OFFSET 0 8.50195 -0.0544997
                    CHANNELS 6 Xposition Yposition Zposition Zrotation Xrotation Yrotation
                    End Site
                    {
                      OFFSET 0 0 0
                    }
                  }
                }
              }
            }
          }
        }
      }
    }
  }
  JOINT RightUpLeg
  {
    OFFSET -7.90196 0 0
    CHANNELS 6 Xposition Yposition Zposition Zrotation Xrotation Yrotation
    JOINT RightLeg
    {
      OFFSET 0 -40.4174 0
      CHANNELS 6 Xposition Yposition Zposition Zrotation Xrotation Yrotation
      JOINT RightFoot
      {
        OFFSET 0 -40.7278 0
        CHANNELS 6 Xposition Yposition Zposition Zrotation Xrotation Yrotation
        JOINT RightForeFoot
        {
          OFFSET 0 -3.70561 0
          CHANNELS 6 Xposition Yposition Zposition Zrotation Xrotation Yrotation
          JOINT RightToeBase
          {
            OFFSET 0 0 14.5123
            CHANNELS 6 Xposition Yposition Zposition Zrotation Xrotation Yrotation
            End Site
            {
              OFFSET 0 0 5.18155
            }
          }
        }
      }
    }
  }
  JOINT LeftUpLeg
  {
    OFFSET 7.90196 0 0
    CHANNELS 6 Xposition Yposition Zposition Zrotation Xrotation Yrotation
    JOINT LeftLeg
    {
      OFFSET 0 -40.4174 0
      CHANNELS 6 Xposition Yposition Zposition Zrotation Xrotation Yrotation
      JOINT LeftFoot
      {
        OFFSET 0 -40.7278 0
        CHANNELS 6 Xposition Yposition Zposition Zrotation Xrotation Yrotation
        JOINT LeftForeFoot
        {
          OFFSET 0 -3.70561 0
          CHANNELS 6 Xposition Yposition Zposition Zrotation Xrotation Yrotation
          JOINT LeftToeBase
          {
            OFFSET 0 0 14.5123
            CHANNELS 6 Xposition Yposition Zposition Zrotation Xrotation Yrotation
            End Site
            {
              OFFSET 0 0 5.35275
            }
          }
        }
      }
    }
  }
}
MOTION
Frames:	5
Frame Time:	0.00833333
-3.22059 84.5382 74.9473 0.589187 -3.62121 6.56636 0 9.91813 -2.23682 1.60441 -0.59631 -0.135182 1.77636e-015 9.57301 0 -0.749139 5.31796 0.205532 -1.77636e-015 9.57301 0 -0.372884 3.87309 0.359406 0 9.57301 0 2.14226 -1.05055 -0.694254 0 12.3082 1.23082 -0.984866 -3.28799 0.376054 1.77636e-015 3.93031 0 -1.27785 2.66341 -3.87744 8.88178e-016 3.93031 1.42109e-014 -0.986595 -8.81915 -0.292237 0 8.79154 5.27092 98.8955 -10.4632 1.62812 0 16.5743 0 58.065 4.87701 -51.4386 0 27.4101 0 0.000142096 30.04 6.7757 0 20.5961 0 -1.8025 -2.05483 -5.16255e-006 -2.72421 3.18823 2.37073 1.59028e-015 45.2637 -0 1.42109e-014 8.50195 -0.0544997 -1.59028e-015 0 6.36111e-015 0 8.79154 5.27092 -98.8525 -14.958 -2.30208 0 16.5743 1.42109e-014 -63.2053 11.553 60.1234 0 27.4101 0 -0.000417485 27.5569 -7.40087 0 20.5961 -1.42109e-014 2.23153 -8.60857 2.29788e-005 2.72421 3.18823 2.37073 1.59028e-015 45.2637 -0 0 8.50195 -0.0544997 -3.18055e-015 0 3.18055e-015 -7.90196 1.42109e-014 0 -3.1688 -11.1606 -4.25215 0 -40.4174 0 6.4829e-016 17.501 -8.3373e-016 0 -40.7278 0 2.05677 -12.4423 3.08617 3.55271e-015 -3.70561 -1.42109e-014 -9.93923e-017 -1.59028e-015 -7.95139e-016 0 -1.77636e-015 14.5123 -4.96914e-017 -3.57599 -7.9669e-016 7.90196 0 1.42109e-014 13.2205 6.10605 -0.0240415 0 -40.4174 1.42109e-014 -1.78906e-015 41.9069 -0 1.77636e-015 -40.7278 -3.55271e-015 -16.4939 -2.38092 -18.6284 0 -3.70561 0 -3.97569e-016 -9.54166e-015 -1.59028e-015 0 7.10543e-015 14.5123 3.40101e-015 -15.4965 8.25135e-016 
-3.05089 84.4771 74.5139 0.599118 -3.53456 6.69671 0 9.91813 -2.23682 1.60149 -0.654701 -0.138841 0 9.57301 -1.42109e-014 -0.755746 5.30438 0.203718 0 9.57301 -1.42109e-014 -0.37597 3.87571 0.293001 0 9.57301 -7.10543e-015 2.15805 -1.05897 -0.717619 8.88178e-016 12.3082 1.23082 -0.960566 -3.293 0.328583 1.77636e-015 3.93031 0 -1.27666 2.65499 -3.88565 8.88178e-016 3.93031 0 -0.983849 -8.82466 -0.292895 0 8.79154 5.27092 98.8736 -10.4801 1.62664 0 16.5743 0 58.0382 4.92617 -51.392 0 27.4101 -7.10543e-015 0.000106653 30.104 6.83079 -1.42109e-014 20.5961 0 -1.8144 -2.04241 -3.87188e-006 -2.72421 3.18823 2.37073 -1.12496e-014 45.2637 1.80753e-014 0 8.50195 -0.0544997 1.59028e-015 -1.59028e-015 -0 0 8.79154 5.27092 -98.8427 -14.9257 -2.29461 2.84217e-014 16.5743 0 -63.3157 11.7144 60.1045 1.42109e-014 27.4101 7.10543e-015 -0.000313569 27.7174 -7.46698 0 20.5961 0 2.31084 -8.60036 1.72337e-005 2.72421 3.18823 2.37073 -6.41993e-015 45.2637 9.03765e-015 1.42109e-014 8.50195 -0.0544997 4.77083e-015 -1.59028e-015 -0 -7.90196 -1.42109e-014 1.42109e-014 -3.3529 -11.5956 -4.232 0 -40.4174 -1.42109e-014 -5.69177e-016 17.6592 -4.1723e-016 0 -40.7278 0 2.13997 -12.2432 2.96732 0 -3.70561 -1.42109e-014 -1.98785e-016 1.59028e-015 2.38542e-015 -3.55271e-015 -3.55271e-015 14.5123 -9.76306e-017 -3.63956 1.59349e-015 7.90196 -1.42109e-014 0 13.1114 6.48196 -0.067144 1.77636e-015 -40.4174 -1.42109e-014 1.76554e-015 40.7023 -2.09769e-015 1.77636e-015 -40.7278 0 -16.4891 -2.68574 -18.9603 0 -3.70561 3.55271e-015 1.59028e-015 3.18055e-015 7.95139e-016 1.77636e-015 0 14.5123 1.43709e-015 -17.0843 8.31845e-016 
-2.8747 84.412 74.0699 0.60885 -3.44789 6.82704 -3.55271e-015 9.91813 -2.23682 1.59858 -0.713092 -0.142503 1.77636e-015 9.57301 -1.42109e-014 -0.762353 5.2908 0.201903 0 9.57301 0 -0.379053 3.87833 0.226597 -1.77636e-015 9.57301 0 2.17383 -1.0674 -0.740981 -8.88178e-016 12.3082 1.23082 -0.93627 -3.29803 0.281114 0 3.93031 0 -1.27546 2.64657 -3.89386 0 3.93031 -1.42109e-014 -0.981103 -8.83017 -0.293552 1.77636e-015 8.79154 5.27092 98.8517 -10.497 1.62516 0 16.5743 -1.42109e-014 58.0112 4.97531 -51.3454 0 27.4101 7.10543e-015 2.81094e-008 30.1679 6.88592 0 20.5961 0 -1.82629 -2.02998 6.3651e-015 -2.72421 3.18823 2.37073 9.60048e-015 45.2637 -9.03765e-015 0 8.50195 -0.0544997 1.59028e-015 1.59028e-015 -6.36111e-015 1.77636e-015 8.79154 5.27092 -98.8328 -14.8933 -2.28716 2.84217e-014 16.5743 -7.10543e-015 -63.4261 11.8758 60.0859 0 27.4101 0 7.41471e-008 27.878 -7.53318 0 20.5961 0 2.39014 -8.59215 3.21666e-015 2.72421 3.18823 2.37073 1.56087e-015 45.2637 4.51883e-015 -1.42109e-014 8.50195 -0.0544997 -1.59028e-015 1.59028e-015 3.18055e-015 -7.90196 0 1.42109e-014 -3.53713 -12.0307 -4.21324 -3.55271e-015 -40.4174 -1.42109e-014 3.69182e-016 17.8175 4.17599e-016 0 -40.7278 1.42109e-014 2.22353 -12.0444 2.84826 -3.55271e-015 -3.70561 -1.42109e-014 0 0 -0 0 0 14.5123 -1.98785e-016 -3.70312 -0 7.90196 -1.42109e-014 0 13.0025 6.85794 -0.109558 1.77636e-015 -40.4174 -1.42109e-014 -2.2673e-015 39.498 -2.06089e-015 -1.77636e-015 -40.7278 -3.55271e-015 -16.4861 -2.99057 -19.2923 3.55271e-015 -3.70561 0 3.97569e-016 -9.54166e-015 -1.59028e-015 0 0 14.5123 -2.52524e-015 -18.6715 -1.67862e-015 
-2.69345 84.3433 73.614 0.625203 -3.41113 6.93803 -1.77636e-015 9.91813 -2.23682 1.58159 -0.689625 -0.144988 0 9.57301 0 -0.761403 5.27825 0.19927 -1.77636e-015 9.57301 1.42109e-014 -0.368546 3.87309 0.185256 0 9.57301 7.10543e-015 2.18876 -1.07289 -0.752539 -8.88178e-016 12.3082 1.23082 -0.913107 -3.28621 0.237058 0 3.93031 0 -1.27832 2.63561 -3.90823 0 3.93031 0 -0.98416 -8.83893 -0.294748 0 8.79154 5.27092 98.8082 -10.5174 1.62014 0 16.5743 -1.42109e-014 58.0087 5.04646 -51.284 0 27.4101 0 2.69478e-005 30.2094 6.90734 0 20.5961 0 -1.88496 -2.03343 5.30211e-006 -2.72421 3.18823 2.37073 1.59028e-015 45.2637 -0 0 8.50195 -0.0544997 -8.82781e-032 -1.59028e-015 -3.18055e-015 0 8.79154 5.27092 -98.8049 -14.8606 -2.27495 0 16.5743 0 -63.5935 12.0475 60.1027 0 27.4101 0 -0.000317157 28.0371 -7.60024 0 20.5961 0 2.47597 -8.56626 5.88283e-005 2.72421 3.18823 2.37073 3.15115e-015 45.2637 4.51883e-015 0 8.50195 -0.0544997 4.77083e-015 -3.18055e-015 -6.36111e-015 -7.90196 0 0 -3.75327 -12.4709 -4.18215 0 -40.4174 -1.42109e-014 -1.02385e-015 18.018 4.18072e-016 0 -40.7278 -1.42109e-014 2.32788 -11.7884 2.75762 0 -3.70561 0 -1.98785e-016 0 -2.38542e-015 0 1.77636e-015 14.5123 4.12684e-017 -3.77793 -2.39061e-015 7.90196 1.42109e-014 0 12.8371 7.10929 -0.0246744 -3.55271e-015 -40.4174 0 -1.88845e-015 38.6243 -0 0 -40.7278 3.55271e-015 -16.201 -3.71885 -19.4804 0 -3.70561 3.55271e-015 -2.18663e-015 0 7.95139e-016 0 0 14.5123 8.90673e-016 -19.1909 2.10481e-015 
-2.50446 84.273 73.1433 0.641484 -3.37434 7.04901 1.77636e-015 9.91813 -2.23682 1.5646 -0.666157 -0.147466 0 9.57301 0 -0.760454 5.2657 0.196638 -1.77636e-015 9.57301 -1.42109e-014 -0.358043 3.86785 0.143917 1.77636e-015 9.57301 -7.10543e-015 2.20369 -1.07838 -0.764096 0 12.3082 1.23082 -0.889936 -3.27441 0.192997 1.77636e-015 3.93031 0 -1.28118 2.62464 -3.92261 0 3.93031 -1.42109e-014 -0.987218 -8.8477 -0.295945 8.88178e-016 8.79154 5.27092 98.7648 -10.5378 1.61511 0 16.5743 0 58.0061 5.11761 -51.2226 0 27.4101 7.10543e-015 3.59212e-005 30.2509 6.92876 -1.42109e-014 20.5961 0 -1.94363 -2.03688 7.06949e-006 -2.72421 3.18823 2.37073 1.6785e-015 45.2637 -1.35565e-014 0 8.50195 -0.0544997 -3.18055e-015 1.59028e-015 -6.36111e-015 8.88178e-016 8.79154 5.27092 -98.7769 -14.8279 -2.26276 0 16.5743 -7.10543e-015 -63.761 12.2193 60.1199 1.42109e-014 27.4101 -7.10543e-015 -0.000423517 28.1963 -7.6674 0 20.5961 0 2.5618 -8.54037 7.84324e-005 2.72421 3.18823 2.37073 6.39052e-015 45.2637 -4.51883e-015 0 8.50195 -0.0544997 1.59028e-015 1.59028e-015 -0 -7.90196 0 0 -3.96955 -12.9112 -4.15271 0 -40.4174 -2.84217e-014 -1.04395e-016 18.2184 -1.25565e-015 0 -40.7278 0 2.43254 -11.5326 2.66659 -3.55271e-015 -3.70561 0 1.98785e-016 0 7.95139e-016 0 0 14.5123 2.52333e-016 -3.85274 7.9694e-016 7.90196 0 0 12.6712 7.36041 0.0609887 0 -40.4174 0 9.93923e-017 37.7506 -0 0 -40.7278 3.55271e-015 -15.9181 -4.44812 -19.6652 -1.77636e-015 -3.70561 0 1.39149e-015 9.54166e-015 -0 0 0 14.5123 2.97259e-017 -19.7104 1.26694e-015 
